<?xml version="1.0" encoding="UTF-8" standalone="no" ?>
<!DOCTYPE svg PUBLIC "-//W3C//DTD SVG 1.1//EN" "http://www.w3.org/Graphics/SVG/1.1/DTD/svg11.dtd">
<svg xmlns="http://www.w3.org/2000/svg" xmlns:xlink="http://www.w3.org/1999/xlink" version="1.1" width="1280" height="1024" viewBox="0 0 1280 1024" xml:space="preserve">
<desc>Created with Fabric.js 4.4.0</desc>
<defs>
</defs>
<g transform="matrix(1 0 0 1 640 512)" id="background-logo"  >
<rect style="stroke: none; stroke-width: 0; stroke-dasharray: none; stroke-linecap: butt; stroke-dashoffset: 0; stroke-linejoin: miter; stroke-miterlimit: 4; fill: rgb(255,255,255); fill-opacity: 0; fill-rule: nonzero; opacity: 1;"  paint-order="stroke"  x="-640" y="-512" rx="0" ry="0" width="1280" height="1024" />
</g>
<g transform="matrix(1.9211538461538462 0 0 1.9211538461538462 640 397.00102339795257)" id="logo-logo"  >
<g style=""  paint-order="stroke"   >
		<g transform="matrix(1.7745649581687204 0 0 -1.7745649581687204 80.5421797564037 31.928229939166158)"  >
<path style="stroke: none; stroke-width: 1; stroke-dasharray: none; stroke-linecap: butt; stroke-dashoffset: 0; stroke-linejoin: miter; stroke-miterlimit: 4; fill: rgb(194,30,44); fill-rule: nonzero; opacity: 1;"  paint-order="stroke"  transform=" translate(-207.88700000000003, -112.00768911079172)" d="M 220.126 167.118 L 175.17000000000002 155.435 L 206.71200000000002 147.236 C 214.257 145.262 220.16100000000003 137.611 220.16100000000003 129.82 L 220.16100000000003 129.82 L 220.16100000000003 85.24799999999999 C 220.16100000000003 77.237 213.98800000000003 69.821 206.10300000000004 68.37199999999999 L 206.10300000000004 68.37199999999999 L 181.55100000000004 63.884999999999984 L 219.83900000000006 56.603999999999985 C 231.24800000000005 54.45599999999998 240.60400000000004 62.179999999999986 240.60400000000004 73.80699999999999 L 240.60400000000004 73.80699999999999 L 240.60400000000004 151.257 C 240.60400000000004 161.12800000000001 233.97800000000004 167.769 225.07600000000005 167.77 L 225.07600000000005 167.77 C 223.49000000000004 167.77 221.83300000000006 167.559 220.12600000000006 167.11800000000002" stroke-linecap="round" />
</g>
		<g transform="matrix(1.7745649581687204 0 0 -1.7745649581687204 -10.573733447808593 -92.36994968389868)"  >
<path style="stroke: none; stroke-width: 1; stroke-dasharray: none; stroke-linecap: butt; stroke-dashoffset: 0; stroke-linejoin: miter; stroke-miterlimit: 4; fill: rgb(194,30,44); fill-rule: nonzero; opacity: 1;"  paint-order="stroke"  transform=" translate(-156.5415066807584, -182.05200000000002)" d="M 126.418 198.279 C 124.894 193.924 127.18700000000001 189.156 131.54000000000002 187.631 L 131.54000000000002 187.631 C 132.21500000000003 187.395 132.89800000000002 187.279 133.58 187.222 L 133.58 187.222 L 140.858 164.354 L 156.723 160.23000000000002 L 173.977 171.04000000000002 C 174.601 170.60100000000003 175.268 170.21 176.02100000000002 169.94700000000003 L 176.02100000000002 169.94700000000003 C 180.377 168.42100000000002 185.14300000000003 170.71600000000004 186.66400000000002 175.07200000000003 L 186.66400000000002 175.07200000000003 C 188.19000000000003 179.42700000000002 185.89700000000002 184.19200000000004 181.544 185.71900000000002 L 181.544 185.71900000000002 C 177.18800000000002 187.24300000000002 172.42000000000002 184.94800000000004 170.89600000000002 180.59400000000002 L 170.89600000000002 180.59400000000002 C 170.41400000000002 179.22100000000003 170.35500000000002 177.81400000000002 170.573 176.47500000000002 L 170.573 176.47500000000002 L 148.193 162.44700000000003 L 139.685 189.16900000000004 C 140.78300000000002 190.10100000000003 141.678 191.30000000000004 142.188 192.75700000000003 L 142.188 192.75700000000003 C 143.712 197.11200000000002 141.41899999999998 201.87700000000004 137.063 203.40300000000002 L 137.063 203.40300000000002 C 136.14999999999998 203.722 135.219 203.87400000000002 134.303 203.87400000000002 L 134.303 203.87400000000002 C 130.853 203.87400000000002 127.622 201.72000000000003 126.41799999999999 198.27900000000002" stroke-linecap="round" />
</g>
		<g transform="matrix(1.7745649581687204 0 0 -1.7745649581687204 -23.82442184589422 32.052192274443485)"  >
<path style="stroke: none; stroke-width: 1; stroke-dasharray: none; stroke-linecap: butt; stroke-dashoffset: 0; stroke-linejoin: miter; stroke-miterlimit: 4; fill: rgb(194,30,44); fill-rule: nonzero; opacity: 1;"  paint-order="stroke"  transform=" translate(-149.0745, -111.93783405436972)" d="M 84.396 151.257 L 84.396 73.807 C 84.396 62.18 93.752 54.356 105.19200000000001 56.471000000000004 L 105.19200000000001 56.471000000000004 L 151.55700000000002 64.932 L 164.08700000000002 67.208 L 204.942 74.67399999999999 C 209.81300000000002 75.57199999999999 213.75300000000001 80.312 213.75300000000001 85.24799999999999 L 213.75300000000001 85.24799999999999 L 213.75300000000001 129.82 C 213.75300000000001 134.754 209.876 139.783 205.10100000000003 141.035 L 205.10100000000003 141.035 L 162.41900000000004 152.12199999999999 L 156.62000000000003 153.62599999999998 L 104.87200000000004 167.08499999999998 C 103.15200000000004 167.53499999999997 101.47900000000004 167.74899999999997 99.88200000000005 167.74999999999997 L 99.88200000000005 167.74999999999997 C 91.00000000000004 167.74999999999997 84.39600000000004 161.11399999999998 84.39600000000004 151.25699999999998 M 145.89000000000004 136.15299999999996 C 145.15800000000004 139.92099999999996 148.76300000000003 143.83399999999997 153.94100000000003 144.89199999999997 L 153.94100000000003 144.89199999999997 C 159.12000000000003 145.94299999999996 163.91100000000003 143.74399999999997 164.64700000000002 139.98099999999997 L 164.64700000000002 139.98099999999997 C 165.37900000000002 136.20999999999998 161.77800000000002 132.29799999999997 156.598 131.23999999999995 L 156.598 131.23999999999995 C 155.723 131.06199999999995 154.858 130.97699999999995 154.02300000000002 130.97699999999995 L 154.02300000000002 130.97699999999995 C 149.91700000000003 130.97699999999995 146.50400000000002 133.02299999999994 145.89000000000001 136.15299999999993 M 118.235 93.325 C 115.447 101.156 124.505 110.79400000000001 121.163 118.336 L 121.163 118.336 C 118.6 124.113 114.92399999999999 133.224 122.935 136.685 L 122.935 136.685 C 131.715 140.478 143.537 132.154 149.708 124.105 L 149.708 124.105 C 156.066 115.82600000000001 154.915 106.57600000000001 145.273 97.176 L 145.273 97.176 C 139.608 91.652 132.224 88.584 126.53399999999999 88.584 L 126.53399999999999 88.584 C 122.541 88.583 119.383 90.093 118.23499999999999 93.325 M 160.20299999999997 122.035 C 160.08099999999996 126.228 164.66199999999998 129.808 170.43599999999998 130.029 L 170.43599999999998 130.029 C 176.20899999999997 130.245 180.98699999999997 127.02499999999999 181.10999999999999 122.836 L 181.10999999999999 122.836 C 181.23499999999999 118.643 176.653 115.06 170.87699999999998 114.837 L 170.87699999999998 114.837 C 170.69299999999998 114.83 170.51099999999997 114.827 170.32999999999998 114.827 L 170.32999999999998 114.827 C 164.80999999999997 114.827 160.32399999999998 117.974 160.20299999999997 122.035 M 167.35699999999997 93.577 C 161.72399999999996 94.904 157.97899999999998 99.273 158.99499999999998 103.343 L 158.99499999999998 103.343 C 160.01799999999997 107.415 165.42 109.652 171.06099999999998 108.33500000000001 L 171.06099999999998 108.33500000000001 C 176.70099999999996 107.01400000000001 180.44299999999998 102.64200000000001 179.41899999999998 98.572 L 179.41899999999998 98.572 C 178.6 95.291 174.933 93.20100000000001 170.58599999999998 93.20100000000001 L 170.58599999999998 93.20100000000001 C 169.539 93.20100000000001 168.45299999999997 93.322 167.35699999999997 93.57700000000001 M 151.66699999999997 77.15500000000002 C 146.22499999999997 79.15900000000002 143.02299999999997 83.95200000000001 144.52899999999997 87.87000000000002 L 144.52899999999997 87.87000000000002 C 146.03699999999998 91.79100000000003 151.67299999999997 93.35300000000002 157.12399999999997 91.35500000000002 L 157.12399999999997 91.35500000000002 C 162.57199999999997 89.35700000000001 165.76599999999996 84.56200000000001 164.26199999999997 80.64700000000002 L 164.26199999999997 80.64700000000002 C 163.20099999999996 77.88300000000002 160.08299999999997 76.29100000000003 156.42499999999998 76.29100000000003 L 156.42499999999998 76.29100000000003 C 154.897 76.29100000000003 153.27399999999997 76.56900000000003 151.66699999999997 77.15500000000003" stroke-linecap="round" />
</g>
		<g transform="matrix(1.7745649581687204 0 0 -1.7745649581687204 -12.833100159582614 -4.140921087831941)"  >
<path style="stroke: none; stroke-width: 1; stroke-dasharray: none; stroke-linecap: butt; stroke-dashoffset: 0; stroke-linejoin: miter; stroke-miterlimit: 4; fill: rgb(230,96,107); fill-rule: nonzero; opacity: 1;"  paint-order="stroke"  transform=" translate(-155.26831197386775, -132.33331926648913)" d="M 156.598 131.24 C 151.738 130.252 147.26100000000002 132.148 146.116 135.496 L 146.116 135.496 C 145.79600000000002 134.58200000000002 145.705 133.625 145.89000000000001 132.68 L 145.89000000000001 132.68 C 146.62900000000002 128.912 151.423 126.715 156.598 127.77000000000001 L 156.598 127.77000000000001 C 161.77800000000002 128.82500000000002 165.37900000000002 132.739 164.64700000000002 136.51000000000002 L 164.64700000000002 136.51000000000002 C 164.603 136.73800000000003 164.496 136.94500000000002 164.42100000000002 137.16100000000003 L 164.42100000000002 137.16100000000003 C 163.47000000000003 134.42600000000002 160.478 132.03500000000003 156.598 131.24000000000004" stroke-linecap="round" />
</g>
		<g transform="matrix(1.7745649581687204 0 0 -1.7745649581687204 -14.374980647728194 91.47024995280066)"  >
<path style="stroke: none; stroke-width: 1; stroke-dasharray: none; stroke-linecap: butt; stroke-dashoffset: 0; stroke-linejoin: miter; stroke-miterlimit: 4; fill: rgb(226,70,83); fill-rule: nonzero; opacity: 1;"  paint-order="stroke"  transform=" translate(-154.39943395334336, -78.45466545868516)" d="M 151.667 73.686 C 157.118 71.69200000000001 162.757 73.256 164.262 77.17500000000001 L 164.262 77.17500000000001 C 164.729 78.38900000000001 164.696 79.683 164.334 80.95800000000001 L 164.334 80.95800000000001 C 164.303 80.85400000000001 164.303 80.74800000000002 164.262 80.647 L 164.262 80.647 C 162.757 76.727 157.118 75.165 151.667 77.155 L 151.667 77.155 C 147.911 78.539 145.267 81.255 144.457 84.09 L 144.457 84.09 C 143.224 80.229 146.36599999999999 75.635 151.667 73.686" stroke-linecap="round" />
</g>
		<g transform="matrix(1.7745649581687204 0 0 -1.7745649581687204 -47.59838361956065 56.07964143393508)"  >
<path style="stroke: none; stroke-width: 1; stroke-dasharray: none; stroke-linecap: butt; stroke-dashoffset: 0; stroke-linejoin: miter; stroke-miterlimit: 4; fill: rgb(226,70,83); fill-rule: nonzero; opacity: 1;"  paint-order="stroke"  transform=" translate(-135.67743517899723, -98.39792442813268)" d="M 145.273 97.176 C 135.63299999999998 87.776 121.01899999999999 85.488 118.235 93.325 L 118.235 93.325 C 118.044 93.857 117.919 94.397 117.831 94.94500000000001 L 117.831 94.94500000000001 C 117.602 93.19200000000001 117.652 91.48100000000001 118.235 89.85300000000001 L 118.235 89.85300000000001 C 121.019 82.019 135.633 84.30300000000001 145.273 93.706 L 145.273 93.706 C 151.564 99.839 154.21699999999998 105.90700000000001 153.551 111.683 L 153.551 111.683 C 153.01299999999998 106.96400000000001 150.315 102.096 145.273 97.176" stroke-linecap="round" />
</g>
		<g transform="matrix(1.7745649581687204 0 0 -1.7745649581687204 -75.45574123218802 17.60338990373333)"  >
<path style="stroke: none; stroke-width: 1; stroke-dasharray: none; stroke-linecap: butt; stroke-dashoffset: 0; stroke-linejoin: miter; stroke-miterlimit: 4; fill: rgb(226,70,83); fill-rule: nonzero; opacity: 1;"  paint-order="stroke"  transform=" translate(-119.97930168188643, -120.08)" d="M 121.163 114.863 C 121.473 114.161 121.646 113.439 121.761 112.706 L 121.761 112.706 C 122.033 114.662 121.949 116.559 121.163 118.336 L 121.163 118.336 C 119.993 120.964 118.61 124.28699999999999 118.191 127.454 L 118.191 127.454 C 117.512 123.42399999999999 119.555 118.48599999999999 121.163 114.863" stroke-linecap="round" />
</g>
		<g transform="matrix(1.7745649581687204 0 0 -1.7745649581687204 14.474929976523867 24.557827310632604)"  >
<path style="stroke: none; stroke-width: 1; stroke-dasharray: none; stroke-linecap: butt; stroke-dashoffset: 0; stroke-linejoin: miter; stroke-miterlimit: 4; fill: rgb(226,70,83); fill-rule: nonzero; opacity: 1;"  paint-order="stroke"  transform=" translate(-170.65688933216705, -116.1610465827771)" d="M 170.877 114.837 C 165.87300000000002 114.649 161.62400000000002 117.053 160.5 120.429 L 160.5 120.429 C 160.31 119.825 160.185 119.206 160.203 118.561 L 160.203 118.561 C 160.328 114.36800000000001 165.109 111.152 170.877 111.364 L 170.877 111.364 C 176.65300000000002 111.589 181.235 115.16900000000001 181.11 119.363 L 181.11 119.363 C 181.09300000000002 119.919 180.985 120.452 180.81300000000002 120.968 L 180.81300000000002 120.968 C 179.76700000000002 117.629 175.76700000000002 115.025 170.877 114.837" stroke-linecap="round" />
</g>
		<g transform="matrix(1.7745649581687204 0 0 -1.7745649581687204 11.900591037203412 62.18337120614501)"  >
<path style="stroke: none; stroke-width: 1; stroke-dasharray: none; stroke-linecap: butt; stroke-dashoffset: 0; stroke-linejoin: miter; stroke-miterlimit: 4; fill: rgb(226,70,83); fill-rule: nonzero; opacity: 1;"  paint-order="stroke"  transform=" translate(-169.20620198061636, -94.95836041323815)" d="M 158.995 99.873 C 157.979 95.802 161.72400000000002 91.43100000000001 167.357 90.107 L 167.357 90.107 C 173.002 88.793 178.402 91.031 179.419 95.098 L 179.419 95.098 C 179.686 96.156 179.61700000000002 97.227 179.294 98.262 L 179.294 98.262 C 178.077 94.397 172.84900000000002 92.3 167.357 93.577 L 167.357 93.577 C 163.179 94.56 160.052 97.22 159.124 100.18599999999999 L 159.124 100.18599999999999 C 159.089 100.08 159.024 99.984 158.995 99.87299999999999" stroke-linecap="round" />
</g>
</g>
</g>
</svg>